<svg width="200" height="140" xmlns="http://www.w3.org/2000/svg" version="1.1" xml:space="preserve">
 <g id="Layer_1">
  <title>Layer 1</title>
  <g stroke="null" id="svg_1">
   <g stroke="null" id="svg_28">
    <g stroke="null" id="svg_2">
     <g stroke="null" id="svg_3">
      <path stroke="null" id="svg_4" d="m132.1721,59.91864l-29.13811,35.16037l30.71277,40.64309l4.34866,-5.25542c6.67486,-8.06488 2.982,-18.78075 0.77548,-25.18337c-1.19385,-3.46563 -2.51959,-7.59032 -3.875,-11.96863l12.40813,-14.9921l-15.23192,-18.40394l0,0zm0.101,24.41674c-0.91358,-3.06858 -1.81017,-6.12847 -2.65865,-9.05737l2.55764,-3.08969l5.07723,6.13455l-4.97623,6.01251l0,0z"/>
      <path stroke="null" id="svg_5" d="m99.99693,21.04365l-15.21302,-18.38109l-12.40765,14.9921c-3.62393,-1.63796 -7.0377,-3.23948 -9.9065,-4.68253c-5.29886,-2.66545 -14.1678,-7.12733 -20.84218,0.93726l-4.34986,5.25426l33.59831,37.06525l29.12088,-35.18524l0,-0.00001zm-15.21302,-6.11199l5.07771,6.13455l-2.55788,3.09026c-2.42409,-1.02517 -4.9566,-2.10818 -7.49581,-3.21201l4.97599,-6.0128z"/>
      <path stroke="null" id="svg_6" d="m143.17264,7.77454c-6.06548,-7.3289 -15.93536,-7.3289 -22.00156,0c0,0 -58.20156,70.74035 -61.44301,75.48303c-12.55222,-0.57317 -19.63683,2.40402 -21.06859,8.8613c-0.803,3.62122 0.40186,7.40524 3.5806,11.24595c1.16082,1.40285 2.60407,2.8352 4.30941,4.2797c-2.7046,7.68836 -2.65529,13.29195 0.15486,16.6876c2.80991,3.39536 7.44818,3.45493 13.81022,0.18855c1.19505,2.05931 2.38005,3.80225 3.54111,5.2051c0,0 0.00024,0 0.00024,0.00029c3.17946,3.84157 6.31201,5.29735 9.31029,4.32655c5.3441,-1.72993 7.80815,-10.28989 7.33353,-25.45608c3.92454,-3.91561 7.85387,-8.24504 11.70039,-12.8923l0.13116,-0.20475l50.6416,-61.14161c6.06596,-7.3289 6.06572,-19.25415 -0.00024,-26.58333l0,-0.00001z"/>
     </g>
    </g>
   </g>
   <g stroke="null" id="svg_7"/>
   <g stroke="null" id="svg_8"/>
   <g stroke="null" id="svg_9"/>
   <g stroke="null" id="svg_10"/>
   <g stroke="null" id="svg_11"/>
   <g stroke="null" id="svg_12"/>
   <g stroke="null" id="svg_13"/>
   <g stroke="null" id="svg_14"/>
   <g stroke="null" id="svg_15"/>
   <g stroke="null" id="svg_16"/>
   <g stroke="null" id="svg_17"/>
   <g stroke="null" id="svg_18"/>
   <g stroke="null" id="svg_19"/>
   <g stroke="null" id="svg_20"/>
   <g stroke="null" id="svg_21"/>
  </g>
 </g>

</svg>