<svg width="200" height="140" xmlns="http://www.w3.org/2000/svg" xml:space="preserve" version="1.1">
 <g id="Layer_1">
  <title>Layer 1</title>
  <g stroke="null" id="svg_1">
   <g stroke="null" id="svg_2">
    <path stroke="null" id="svg_3" d="m183.38647,129.53572l-0.06026,0l0,-55.35753l0.12016,0c1.59415,0 2.88665,-1.37264 2.88665,-3.06565s-1.2925,-3.06565 -2.88665,-3.06565l-34.7899,0l0,-52.052c0,-1.693 -1.2925,-3.06565 -2.88665,-3.06565l-14.28314,0l0,-6.53059c0,-1.693 -1.2925,-3.06565 -2.88665,-3.06565l-52.20001,0c-1.59415,0 -2.88665,1.37264 -2.88665,3.06565l0,6.53059l-14.28314,0c-1.59415,0 -2.88665,1.37264 -2.88665,3.06565l0,52.052l-34.7899,0c-1.59415,0 -2.88665,1.37264 -2.88665,3.06565s1.2925,3.06565 2.88665,3.06565l0.12016,0l0,55.35753l-0.06026,0c-1.59415,0 -2.88665,1.37264 -2.88665,3.06565s1.2925,3.06565 2.88665,3.06565l161.77291,0c1.59415,0 2.88665,-1.37264 2.88665,-3.06565s-1.2925,-3.06565 -2.88665,-3.06565zm-5.83356,0l-28.89645,0l0,-55.35753l28.89645,0l0,55.35753zm-34.66975,-110.47517l0,52.052l0,58.42318l-11.39649,0l0,-15.32823l2.88665,0c1.59415,0 2.88665,-1.37264 2.88665,-3.06565s-1.2925,-3.06565 -2.88665,-3.06565l-2.88665,0l0,-89.01565l11.39649,0zm-43.2698,12.11888l0,27.78242l-8.65995,0l0,-27.78242l8.65995,0zm14.25283,0l0,27.78242l-8.47953,0l0,-27.78242l8.47953,0zm11.84717,0l0,27.78242l-6.07387,0l0,-27.78242l6.07387,0zm-20.32671,61.69614l0,-27.78242l8.47953,0l0,27.78242l-8.47953,0zm-14.43325,0l0,-27.78242l8.65995,0l0,27.78242l-8.65995,0zm-11.66676,0l0,-27.78242l5.89346,0l0,27.78242l-5.89346,0zm40.35284,-27.78242l6.07387,0l0,27.78242l-6.07387,0l0,-27.78242zm-34.45938,-6.13129l-5.89346,0l0,-27.78242l5.89346,0l0,27.78242zm-5.89346,40.04501l46.42671,0l0,9.06933l-46.42671,0l0,-9.06933zm20.32671,15.20063l0,15.32823l-20.32671,0l0,-15.32823l20.32671,0zm5.7733,0l20.32671,0l0,15.32823l-20.32671,0l0,-15.32823zm-26.10001,-104.74318l46.42671,0l0,15.58383l-46.42671,0l0,-15.58383zm-17.16979,9.59624l11.39649,0l0,89.01565l-2.88665,0c-1.59415,0 -2.88665,1.37264 -2.88665,3.06565s1.2925,3.06565 2.88665,3.06565l2.88665,0l0,15.32823l-11.39649,0l0,-58.42318l0,-52.052zm-34.66975,55.11764l28.89645,0l0,55.35753l-28.89645,0l0,-55.35753z"/>
    <path stroke="null" id="svg_4" d="m36.10707,105.29795c-1.59415,0 -2.88665,1.37264 -2.88665,3.06565l0,9.16513c0,1.693 1.2925,3.06565 2.88665,3.06565s2.88665,-1.37264 2.88665,-3.06565l0,-9.16513c0,-1.69339 -1.2925,-3.06565 -2.88665,-3.06565z"/>
    <path stroke="null" id="svg_5" d="m47.74387,105.29795c-1.59415,0 -2.88665,1.37264 -2.88665,3.06565l0,9.16513c0,1.693 1.2925,3.06565 2.88665,3.06565s2.88665,-1.37264 2.88665,-3.06565l0,-9.16513c0,-1.69339 -1.2925,-3.06565 -2.88665,-3.06565z"/>
    <path stroke="null" id="svg_6" d="m36.10707,83.71043c-1.59415,0 -2.88665,1.37264 -2.88665,3.06565l0,9.16513c0,1.693 1.2925,3.06565 2.88665,3.06565s2.88665,-1.37264 2.88665,-3.06565l0,-9.16513c0,-1.693 -1.2925,-3.06565 -2.88665,-3.06565z"/>
    <path stroke="null" id="svg_7" d="m47.74387,83.71043c-1.59415,0 -2.88665,1.37264 -2.88665,3.06565l0,9.16513c0,1.693 1.2925,3.06565 2.88665,3.06565s2.88665,-1.37264 2.88665,-3.06565l0,-9.16513c0,-1.693 -1.2925,-3.06565 -2.88665,-3.06565z"/>
    <path stroke="null" id="svg_8" d="m157.50441,120.59399c1.59415,0 2.88665,-1.37264 2.88665,-3.06565l0,-9.16475c0,-1.693 -1.2925,-3.06565 -2.88665,-3.06565s-2.88665,1.37264 -2.88665,3.06565l0,9.16513c0,1.693 1.2925,3.06526 2.88665,3.06526z"/>
    <path stroke="null" id="svg_9" d="m169.14121,120.59399c1.59415,0 2.88665,-1.37264 2.88665,-3.06565l0,-9.16475c0,-1.693 -1.2925,-3.06565 -2.88665,-3.06565s-2.88665,1.37264 -2.88665,3.06565l0,9.16513c0,1.693 1.2925,3.06526 2.88665,3.06526z"/>
    <path stroke="null" id="svg_10" d="m157.50441,99.00686c1.59415,0 2.88665,-1.37264 2.88665,-3.06565l0,-9.16513c0,-1.693 -1.2925,-3.06565 -2.88665,-3.06565s-2.88665,1.37264 -2.88665,3.06565l0,9.16513c0,1.693 1.2925,3.06565 2.88665,3.06565z"/>
    <path stroke="null" id="svg_11" d="m169.14121,99.00686c1.59415,0 2.88665,-1.37264 2.88665,-3.06565l0,-9.16513c0,-1.693 -1.2925,-3.06565 -2.88665,-3.06565s-2.88665,1.37264 -2.88665,3.06565l0,9.16513c0,1.693 1.2925,3.06565 2.88665,3.06565z"/>
   </g>
   <g stroke="null" id="svg_12"/>
   <g stroke="null" id="svg_13"/>
   <g stroke="null" id="svg_14"/>
   <g stroke="null" id="svg_15"/>
   <g stroke="null" id="svg_16"/>
   <g stroke="null" id="svg_17"/>
   <g stroke="null" id="svg_18"/>
   <g stroke="null" id="svg_19"/>
   <g stroke="null" id="svg_20"/>
   <g stroke="null" id="svg_21"/>
   <g stroke="null" id="svg_22"/>
   <g stroke="null" id="svg_23"/>
   <g stroke="null" id="svg_24"/>
   <g stroke="null" id="svg_25"/>
   <g stroke="null" id="svg_26"/>
  </g>
 </g>

</svg>