<svg width="120" height="120" xmlns="http://www.w3.org/2000/svg" version="1.1" xml:space="preserve">
 <g id="Layer_1">
  <title>Layer 1</title>
  <path stroke="null" d="m107.66208,81.53277c2.4114,-5.73056 3.74217,-11.98528 3.74217,-18.53276c0,-0.22776 -0.00051,-0.45551 -0.00405,-0.68254c-0.0076,-0.51955 -0.24686,-1.01096 -0.65703,-1.35078c-2.8955,-2.39764 -6.3741,-4.18137 -10.0593,-5.15862c-0.08077,-0.02062 -0.15495,-0.03541 -0.2304,-0.04609c-0.01393,-0.00194 -0.02785,-0.00267 -0.04203,-0.00437c-0.05899,-0.00703 -0.11849,-0.0114 -0.1785,-0.0131c-0.02253,-0.00073 -0.04481,-0.00073 -0.06735,-0.00073c-0.05241,0.00024 -0.10507,0.00315 -0.15799,0.00776c-0.02279,0.00194 -0.04557,0.00315 -0.06836,0.00582c-0.06482,0.008 -0.12989,0.01892 -0.19496,0.03371c-0.01443,0.00315 -0.02861,0.00679 -0.04279,0.01019c-0.06406,0.01601 -0.1266,0.03469 -0.18736,0.05651c-0.02101,0.00752 -0.04152,0.01649 -0.06203,0.02474c-0.04988,0.01965 -0.09824,0.04075 -0.14559,0.06428c-0.0195,0.0097 -0.03849,0.0194 -0.05773,0.02959c-0.05292,0.02838 -0.10406,0.05918 -0.15343,0.09193c-0.01114,0.00752 -0.02279,0.01407 -0.03367,0.02183c-0.06153,0.04293 -0.12027,0.08902 -0.17571,0.13826c-4.12297,3.69651 -6.84706,8.52575 -7.82033,13.78018c-5.19422,-1.2426 -10.72671,-1.21568 -16.0612,0.22194c-0.08051,0.02256 -0.15242,0.04681 -0.22281,0.07519c-0.01165,0.00461 -0.02279,0.01019 -0.03418,0.01528c-0.05621,0.02401 -0.1114,0.05069 -0.16533,0.08004c-0.01772,0.0097 -0.03519,0.01965 -0.05266,0.02983c-0.0476,0.02789 -0.09368,0.05797 -0.139,0.09023c-0.01595,0.0114 -0.03241,0.02183 -0.04785,0.03371c-0.05722,0.04342 -0.11318,0.0895 -0.16609,0.13995c-0.05418,0.05191 -0.10229,0.10551 -0.14761,0.16057c-0.0119,0.01455 -0.02279,0.02983 -0.03443,0.04487c-0.03393,0.0439 -0.06583,0.08877 -0.0952,0.13486c-0.01038,0.01625 -0.02026,0.0325 -0.03013,0.049c-0.03114,0.05263 -0.0595,0.10624 -0.08482,0.16106c-0.00481,0.01019 -0.01013,0.01989 -0.01469,0.03032c-0.02988,0.06816 -0.05545,0.13729 -0.07646,0.20787c-3.06184,10.42712 -0.01291,21.64205 7.95452,29.2752c0.71451,0.68424 1.46421,1.33526 2.24252,1.94964c-4.68936,2.65353 -9.88612,4.56631 -15.41531,5.56999l-3.82344,-59.5245l20.38521,16.45651c0.34738,0.28039 0.78236,0.42811 1.22393,0.42811c0.20382,0 0.4089,-0.03129 0.60766,-0.09581c0.62893,-0.20374 1.10164,-0.70753 1.2457,-1.32871c1.55763,-6.71072 -0.43093,-13.6036 -5.2122,-18.55896l11.36602,0.78442c0.04583,0.00315 0.09115,0.00485 0.13672,0.00485c0.61272,0 1.19152,-0.28403 1.54903,-0.7672c0.38409,-0.51906 0.45701,-1.19263 0.19268,-1.77622c-2.85727,-6.30614 -8.69536,-10.76281 -15.60394,-12.07939l9.67673,-5.76573c0.56411,-0.33594 0.90364,-0.92995 0.89579,-1.56617c-0.0076,-0.63622 -0.36206,-1.22247 -0.93377,-1.54555c-6.9696,-3.93858 -15.56368,-3.84398 -22.4277,0.24619c-3.68596,2.19608 -6.50803,5.51154 -8.231,9.4928c-1.70423,-3.97593 -4.52327,-7.25768 -8.2748,-9.4928c-6.86427,-4.08993 -15.4581,-4.18453 -22.4277,-0.24619c-0.57196,0.32332 -0.92617,0.90933 -0.93377,1.54555c-0.00785,0.63622 0.33193,1.22999 0.89579,1.56617l9.67673,5.76573c-6.90858,1.31634 -12.74667,5.77325 -15.60394,12.07939c-0.26433,0.58358 -0.19141,1.25715 0.19268,1.77622c0.35751,0.48341 0.9363,0.7672 1.54903,0.7672c0.04532,0 0.0909,-0.00146 0.13672,-0.00485l11.36602,-0.78442c-4.78152,4.95536 -6.76983,11.84824 -5.2122,18.55896c0.14407,0.62118 0.61677,1.12496 1.2457,1.32871c0.19876,0.06428 0.40409,0.09581 0.60766,0.09581c0.44157,0 0.87655,-0.14747 1.22393,-0.42811l20.38521,-16.45651l-3.82395,59.52377c-5.5292,-1.00369 -10.7262,-2.91646 -15.41531,-5.56999c0.77831,-0.61439 1.52826,-1.26564 2.24277,-1.94989c7.96743,-7.63291 11.01636,-18.84808 7.9568,-29.26865c-0.02329,-0.07689 -0.04887,-0.14602 -0.07874,-0.21417c-0.00456,-0.01019 -0.00987,-0.02013 -0.01469,-0.03032c-0.02532,-0.05482 -0.05368,-0.10842 -0.08482,-0.16081c-0.00987,-0.01649 -0.02,-0.03299 -0.03038,-0.04924c-0.02937,-0.04609 -0.06127,-0.09071 -0.0952,-0.13462c-0.01165,-0.01504 -0.02228,-0.03032 -0.03443,-0.04487c-0.04532,-0.05506 -0.09343,-0.10866 -0.14634,-0.15936c-0.05418,-0.05191 -0.11014,-0.09799 -0.16736,-0.14141c-0.01544,-0.01164 -0.03165,-0.02207 -0.04735,-0.03323c-0.04557,-0.0325 -0.09191,-0.06282 -0.13976,-0.09071c-0.01722,-0.00994 -0.03443,-0.01989 -0.0519,-0.02935c-0.05444,-0.02983 -0.11014,-0.05676 -0.16685,-0.08077c-0.01089,-0.00461 -0.02152,-0.00994 -0.03266,-0.01455c-0.07089,-0.02862 -0.1428,-0.05312 -0.21597,-0.07301c-5.34133,-1.4398 -10.87407,-1.46672 -16.06855,-0.22412c-0.97301,-5.25443 -3.69736,-10.08391 -7.81425,-13.77557c-0.06153,-0.05433 -0.12052,-0.10042 -0.1823,-0.14335c-0.01063,-0.00752 -0.02177,-0.01383 -0.03266,-0.0211c-0.04963,-0.03323 -0.10128,-0.06403 -0.1547,-0.09266c-0.01874,-0.01019 -0.03773,-0.01989 -0.05697,-0.02935c-0.0476,-0.02353 -0.09672,-0.04487 -0.14685,-0.06476c-0.02026,-0.008 -0.04026,-0.01674 -0.06102,-0.02426c-0.06178,-0.02207 -0.12508,-0.04123 -0.19015,-0.05724c-0.01266,-0.00315 -0.02532,-0.00631 -0.03823,-0.00922c-0.06659,-0.01504 -0.13293,-0.02644 -0.19926,-0.03444c-0.01975,-0.00243 -0.03975,-0.0034 -0.05975,-0.00509c-0.05697,-0.00509 -0.11368,-0.008 -0.17014,-0.00825c-0.01874,0 -0.03722,0 -0.05596,0.00049c-0.06634,0.0017 -0.13217,0.00631 -0.19724,0.01455c-0.0081,0.00097 -0.0162,0.00146 -0.02431,0.00267c-0.07849,0.01091 -0.15597,0.0262 -0.23167,0.04633c-3.68849,0.97773 -7.16709,2.76171 -10.06259,5.15935c-0.41017,0.33982 -0.64918,0.83123 -0.65703,1.35078c-0.00329,0.22727 -0.0038,0.45503 -0.0038,0.68279c0,6.54748 1.33077,12.8022 3.74217,18.53252c0.00481,0.01189 0.01013,0.02377 0.01519,0.03541c3.92928,9.31671 10.72165,17.24117 19.32864,22.76629c0.0119,0.00776 0.0238,0.01504 0.03595,0.02256c6.2556,4.00843 13.46675,6.74929 21.23087,7.83835c0.04,0.00703 0.08077,0.01189 0.12153,0.01625c2.42735,0.33521 4.90736,0.51203 7.4299,0.51203s5.00256,-0.17682 7.43016,-0.51154c0.04076,-0.00461 0.08153,-0.00946 0.12153,-0.01625c7.76437,-1.08906 14.97552,-3.82992 21.23137,-7.83859c0.01165,-0.00752 0.02355,-0.01455 0.03519,-0.02207c8.60724,-5.52536 15.39961,-13.44982 19.32889,-22.76653c0.00481,-0.01213 0.01038,-0.02377 0.01494,-0.03566l-0.00007,0zm-8.48217,-20.23937l2.10225,8.18811c0.21319,0.82953 0.98871,1.38498 1.84247,1.38498c0.15014,0 0.30256,-0.01722 0.45499,-0.05312c1.01834,-0.23989 1.64093,-1.22538 1.39053,-2.20093l-2.10073,-8.1818c1.6898,0.73178 3.28946,1.66173 4.7362,2.7685c-0.02228,4.98956 -0.87959,9.79309 -2.4395,14.29245c-3.0426,-2.81483 -6.60298,-4.95973 -10.4401,-6.3743c0.57854,-3.59464 2.11491,-6.97098 4.45389,-9.82389zm-14.35419,-1.01193l-21.06705,-17.00686c-0.02304,-0.01989 -0.04709,-0.03857 -0.07115,-0.05724l-0.30408,-0.24546c1.18747,-0.23503 2.40051,-0.3534 3.63001,-0.3534c4.19159,0 8.26772,1.42718 11.47818,4.01886c4.24273,3.42461 6.52399,8.45516 6.33409,13.6441zm6.24801,-17.71124l-13.47916,-0.93019c-3.21452,-1.7294 -6.85946,-2.66008 -10.58113,-2.66008c-0.75046,0 -1.4956,0.03881 -2.23492,0.11133c3.50113,-2.842 8.06339,-4.31866 12.79908,-3.99267c5.53375,0.38202 10.46592,3.16702 13.49612,7.47161l0.00001,0zm-21.31493,-16.29181c4.71063,-2.80683 10.40972,-3.33123 15.50266,-1.55477l-11.46426,6.83103c-4.31134,0.47492 -8.34469,2.17546 -11.6025,4.86295c1.23887,-4.33661 3.87712,-7.9424 7.5641,-10.13921zm-20.51763,0c3.7604,2.24046 6.38372,5.806 7.59676,10.16662c-3.26364,-2.7035 -7.30913,-4.41423 -11.63542,-4.89084l-11.46426,-6.83078c5.09345,-1.77597 10.79203,-1.25182 15.50292,1.55501l0,-0.00001zm-7.81881,8.8202c4.73493,-0.32696 9.29795,1.15043 12.79934,3.99291c-0.73932,-0.07252 -1.48446,-0.11157 -2.23517,-0.11157c-3.72166,0 -7.36635,0.93092 -10.58113,2.66008l-13.47916,0.93019c3.0302,-4.30459 7.96237,-7.08959 13.49612,-7.47161zm-0.91427,11.53874c3.21047,-2.59168 7.2866,-4.01886 11.47818,-4.01886c1.22924,0 2.44229,0.11837 3.63001,0.3534l-21.44228,17.30957c-0.18964,-5.18894 2.09161,-10.21949 6.33409,-13.6441l0,-0.00001zm-24.37778,13.79303l-2.10073,8.1818c-0.25041,0.97555 0.37219,1.96104 1.39053,2.20093c0.15242,0.0359 0.30484,0.05312 0.45499,0.05312c0.85376,0 1.62954,-0.55545 1.84247,-1.38498l2.10225,-8.18811c2.33898,2.85315 3.87535,6.22949 4.45364,9.82389c-3.83737,1.41457 -7.3975,3.55947 -10.4401,6.3743c-1.55991,-4.49936 -2.41722,-9.30313 -2.4395,-14.29269c1.44724,-1.10653 3.04665,-2.03648 4.73645,-2.76826zm-0.80869,20.80161c0.26357,-0.27457 0.53322,-0.54405 0.80717,-0.80649c6.19965,-5.9394 14.97957,-8.62665 23.54732,-7.37143l-14.63016,14.01545c-0.7416,0.71044 -0.7416,1.86232 0,2.57252c0.37093,0.35534 0.8568,0.53289 1.34293,0.53289c0.48587,0 0.972,-0.17755 1.34293,-0.53289l14.62991,-14.01521c1.31001,8.20824 -1.49484,16.61853 -7.69449,22.55793c-0.91554,0.87707 -1.8959,1.69278 -2.92487,2.43499c-7.17038,-4.86998 -12.89276,-11.57246 -16.42073,-19.38776l-0.00001,0zm38.97427,27.58242l0.40688,-6.335l3.78445,0c1.04897,0 1.89894,-0.81449 1.89894,-1.81915s-0.84996,-1.81915 -1.89894,-1.81915l-3.55076,0l3.42543,-53.32799l1.1381,-0.91879l1.1381,0.91879l2.48735,38.7241l-1.51409,0c-1.04897,0 -1.89894,0.81449 -1.89894,1.81915s0.84996,1.81915 1.89894,1.81915l1.74778,0l1.34495,20.93913c-1.71006,0.17682 -3.44568,0.27045 -5.2041,0.27045s-3.49404,-0.09363 -5.2041,-0.27069l0.00001,0zm32.96199,-8.19466c-1.02922,-0.74221 -2.00933,-1.55792 -2.92487,-2.43475c-6.1999,-5.9394 -9.00476,-14.34969 -7.69474,-22.55793l14.63016,14.01545c0.37093,0.3551 0.85705,0.53289 1.34293,0.53289s0.972,-0.17755 1.34293,-0.53289c0.7416,-0.71044 0.7416,-1.86232 0,-2.57252l-14.63042,-14.01569c8.56775,-1.25473 17.34742,1.43179 23.54782,7.37143c0.27395,0.2622 0.54335,0.53168 0.80692,0.80625c-3.52822,7.81531 -9.25035,14.51778 -16.42073,19.38776z" id="svg_3"/>
 </g>
</svg>