<svg width="200" height="140" xmlns="http://www.w3.org/2000/svg" version="1.1" xml:space="preserve">
 <g id="Layer_1">
  <title>Layer 1</title>
  <g stroke="null">
   <g stroke="null">
    <g stroke="null">
     <g stroke="null">
      <path stroke="null" d="m161.08333,60.41075l0,-2.82742c0,-3.61123 -3.20797,-6.55 -7.15,-6.55l-21.45,0c-3.94203,0 -7.15,2.93877 -7.15,6.55l0,2.358c-8.07235,1.06547 -14.3,7.42552 -14.3,15.10867l0,43.66667c0,2.8427 1.99962,5.24437 4.76667,6.14827l0,2.58507c0,3.61123 3.20797,6.55 7.15,6.55s7.15,-2.93877 7.15,-6.55l0,-2.18333l23.83333,0l0,2.18333c0,3.61123 3.20797,6.55 7.15,6.55s7.15,-2.93877 7.15,-6.55l0,-2.58507c2.76705,-0.9039 4.76667,-3.30557 4.76667,-6.14827l0,-43.66667c0,-6.90807 -5.0336,-12.75504 -11.91667,-14.63925zm-30.98333,-2.82742c0,-1.2052 1.07012,-2.18333 2.38333,-2.18333l21.45,0c1.31322,0 2.38333,0.97813 2.38333,2.18333l0,2.18333l-26.21667,0l0,-2.18333zm-4.76667,69.86668c0,1.2052 -1.07012,2.18333 -2.38333,2.18333c-1.31322,0 -2.38333,-0.97813 -2.38333,-2.18333l0,-2.18333l4.76667,0l0,2.18333zm38.13333,0c0,1.2052 -1.07012,2.18333 -2.38333,2.18333c-1.31322,0 -2.38333,-0.97813 -2.38333,-2.18333l0,-2.18333l4.76667,0l0,2.18333zm4.76667,-8.73333c0,1.2052 -1.07012,2.18333 -2.38333,2.18333l-9.53333,0l-28.6,0l-9.53333,0c-1.31322,0 -2.38333,-0.97813 -2.38333,-2.18333l0,-43.66667c0,-6.01945 5.34582,-10.91667 11.91667,-10.91667l28.6,0c6.57085,0 11.91667,4.89722 11.91667,10.91667l0,43.66667z"/>
      <path stroke="null" d="m125.33333,72.86667c-1.3156,0 -2.38333,0.97595 -2.38333,2.18333l0,37.11667c0,1.20738 1.06773,2.18333 2.38333,2.18333c1.3156,0 2.38333,-0.97595 2.38333,-2.18333l0,-37.11667c0,-1.20738 -1.06773,-2.18333 -2.38333,-2.18333z"/>
      <path stroke="null" d="m142.01667,72.86667c-1.3156,0 -2.38333,0.97595 -2.38333,2.18333l0,37.11667c0,1.20738 1.06773,2.18333 2.38333,2.18333c1.3156,0 2.38333,-0.97595 2.38333,-2.18333l0,-37.11667c0,-1.20738 -1.06773,-2.18333 -2.38333,-2.18333z"/>
      <path stroke="null" d="m158.7,72.86667c-1.3156,0 -2.38333,0.97595 -2.38333,2.18333l0,37.11667c0,1.20738 1.06773,2.18333 2.38333,2.18333c1.3156,0 2.38333,-0.97595 2.38333,-2.18333l0,-37.11667c0,-1.20738 -1.06773,-2.18333 -2.38333,-2.18333z"/>
      <path stroke="null" d="m106.26667,51.03333l-2.62405,0c-1.10825,-4.97582 -5.9202,-8.73333 -11.67595,-8.73333l-4.76667,0l0,-19.65l4.76667,0c1.3156,0 2.38333,-0.97595 2.38333,-2.18333l0,-4.36667c0,-3.61123 -3.20797,-6.55 -7.15,-6.55l-9.53333,0c0,-3.61123 -3.20797,-6.55 -7.15,-6.55l-4.76667,0c-3.94203,0 -7.15,2.93877 -7.15,6.55l-9.53333,0c-3.94203,0 -7.15,2.93877 -7.15,6.55l0,4.36667c0,1.20738 1.06773,2.18333 2.38333,2.18333l4.76667,0l0,19.65l-7.15,0c-6.57085,0 -11.91667,4.89722 -11.91667,10.91667l0,61.13334c0,5.27057 4.10172,9.6809 9.53333,10.69615l0,2.40385c0,3.61123 3.20797,6.55 7.15,6.55s7.15,-2.93877 7.15,-6.55l0,-2.18333l26.21667,0l0,2.18333c0,3.61123 3.20797,6.55 7.15,6.55s7.15,-2.93877 7.15,-6.55l0,-2.40385c5.43162,-1.01525 9.53333,-5.4234 9.53333,-10.69615l0,-58.95001l2.38333,0c1.3156,0 2.38333,-0.97595 2.38333,-2.18333s-1.06773,-2.18333 -2.38333,-2.18333zm-40.51667,-43.66667l4.76667,0c1.31322,0 2.38333,0.97813 2.38333,2.18333l-9.53333,0c0,-1.2052 1.07012,-2.18333 2.38333,-2.18333zm-19.06667,10.91667l0,-2.18333c0,-1.2052 1.07012,-2.18333 2.38333,-2.18333l11.91667,0l14.3,0l11.91667,0c1.31322,0 2.38333,0.97813 2.38333,2.18333l0,2.18333l-4.76667,0l-7.15,0l-19.06667,0l-7.15,0l-4.76667,0zm35.75,4.36667l0,19.65l-2.38333,0l0,-19.65l2.38333,0zm-7.15,0l0,19.65l-14.3,0l0,-19.65l14.3,0zm-19.06667,0l0,19.65l-2.38333,0l0,-19.65l2.38333,0zm-7.15,37.11667c1.3156,0 2.38333,-0.97595 2.38333,-2.18333l0,-1.27943l2.38333,2.18333l0,16.56277l-9.53333,0l0,-16.56277l2.38333,-2.18333l0,1.27943c0,1.20738 1.06773,2.18333 2.38333,2.18333zm0,67.68335c0,1.2052 -1.07012,2.18333 -2.38333,2.18333s-2.38333,-0.97813 -2.38333,-2.18333l0,-2.18333l4.76667,0l0,2.18333zm40.51667,0c0,1.2052 -1.07012,2.18333 -2.38333,2.18333s-2.38333,-0.97813 -2.38333,-2.18333l0,-2.18333l4.76667,0l0,2.18333zm9.53333,-13.1c0,3.61123 -3.20797,6.55 -7.15,6.55l-9.53333,0l-30.98333,0l-9.53333,0c-3.94203,0 -7.15,-2.93877 -7.15,-6.55l0,-61.13334c0,-3.61123 3.20797,-6.55 7.15,-6.55l4.76667,0l0,4.36667c-0.63158,0 -1.23933,0.22925 -1.68502,0.63972l-4.76667,4.36667c-0.44807,0.40828 -0.69832,0.96285 -0.69832,1.54362l0,19.65c0,1.20738 1.06773,2.18333 2.38333,2.18333l14.3,0c1.3156,0 2.38333,-0.97595 2.38333,-2.18333l0,-19.65c0,-0.58077 -0.25025,-1.13533 -0.69832,-1.54362l-4.76667,-4.36667c-0.44568,-0.41047 -1.05343,-0.63972 -1.68502,-0.63972l0,-4.36667l7.15,0l19.06667,0l7.15,0l7.15,0c3.94203,0 7.15,2.93877 7.15,6.55l0,61.13334z"/>
      <path stroke="null" d="m91.96667,55.4l-16.68333,0c-1.3156,0 -2.38333,0.97595 -2.38333,2.18333s1.06773,2.18333 2.38333,2.18333l16.68333,0c1.3156,0 2.38333,-0.97595 2.38333,-2.18333s-1.06773,-2.18333 -2.38333,-2.18333z"/>
      <path stroke="null" d="m70.51667,68.5l7.15,0c1.3156,0 2.38333,-0.97595 2.38333,-2.18333s-1.06773,-2.18333 -2.38333,-2.18333l-7.15,0c-1.3156,0 -2.38333,0.97595 -2.38333,2.18333s1.06773,2.18333 2.38333,2.18333z"/>
      <path stroke="null" d="m91.96667,64.13334l-4.76667,0c-1.3156,0 -2.38333,0.97595 -2.38333,2.18333s1.06773,2.18333 2.38333,2.18333l4.76667,0c1.3156,0 2.38333,-0.97595 2.38333,-2.18333s-1.06773,-2.18333 -2.38333,-2.18333z"/>
      <path stroke="null" d="m80.05,99.06668l-9.53333,0l-9.53333,0c-3.94203,0 -7.15,2.93877 -7.15,6.55l0,8.73333c0,1.20738 1.06773,2.18333 2.38333,2.18333l14.3,0l4.76667,0c3.94203,0 7.15,-2.93877 7.15,-6.55l0,-8.73333c0,-1.20738 -1.06773,-2.18333 -2.38333,-2.18333zm-11.91667,13.1l-9.53333,0l0,-6.55c0,-1.2052 1.07012,-2.18333 2.38333,-2.18333l7.15,0l0,8.73333zm9.53333,-2.18333c0,1.2052 -1.07012,2.18333 -2.38333,2.18333l-2.38333,0l0,-8.73333l4.76667,0l0,6.55z"/>
     </g>
    </g>
   </g>
   <g stroke="null"/>
   <g stroke="null"/>
   <g stroke="null"/>
   <g stroke="null"/>
   <g stroke="null"/>
   <g stroke="null"/>
   <g stroke="null"/>
   <g stroke="null"/>
   <g stroke="null"/>
   <g stroke="null"/>
   <g stroke="null"/>
   <g stroke="null"/>
   <g stroke="null"/>
   <g stroke="null"/>
   <g stroke="null"/>
  </g>
 </g>

</svg>