<svg width="200" height="140" xmlns="http://www.w3.org/2000/svg" xml:space="preserve" version="1.1">
 <g id="Layer_1">
  <title>Layer 1</title>
  <g stroke="null">
   <g stroke="null">
    <g stroke="null">
     <g stroke="null">
      <path stroke="null" d="m67.49969,126.60857l-9.99995,0c-1.37989,0 -2.49991,1.16297 -2.49991,2.59576s1.12002,2.59576 2.49991,2.59576l9.99995,0c1.37989,0 2.49991,-1.16297 2.49991,-2.59576s-1.12002,-2.59576 -2.49991,-2.59576z"/>
      <path stroke="null" d="m67.49969,111.03339l-25.00002,0c-1.37989,0 -2.49991,1.16297 -2.49991,2.59576s1.12002,2.59576 2.49991,2.59576l25.00002,0c1.37989,0 2.49991,-1.16297 2.49991,-2.59576s-1.12002,-2.59576 -2.49991,-2.59576z"/>
      <path stroke="null" d="m67.49969,95.45822l-15.00007,0c-1.37989,0 -2.49991,1.16297 -2.49991,2.59576s1.12002,2.59606 2.49991,2.59606l15.00007,0c1.37989,0 2.49991,-1.16297 2.49991,-2.59576s-1.12002,-2.59606 -2.49991,-2.59606z"/>
      <path stroke="null" d="m57.49974,27.96601l9.99995,0c1.37989,0 2.49991,-1.16297 2.49991,-2.59576c0,-1.43279 -1.12002,-2.59576 -2.49991,-2.59576l-9.99995,0c-1.37989,0 -2.49991,1.16297 -2.49991,2.59576c-0.00029,1.43279 1.11973,2.59576 2.49991,2.59576z"/>
      <path stroke="null" d="m82.49975,33.15753c1.37989,0 2.49991,-1.16297 2.49991,-2.59576l0,-18.17093l11.32769,0c0.30498,0 1.07989,0.45417 1.37755,1.1578l7.50003,18.04134c0.40752,0.98136 1.32745,1.56786 2.29513,1.56786c0.33252,0 0.66739,-0.06753 0.98995,-0.21294c1.26739,-0.56855 1.85245,-2.09474 1.30489,-3.41102l-7.50501,-18.05442c-1.04502,-2.48168 -3.55256,-4.28043 -5.96253,-4.28043l-11.32769,0c-2.75743,0 -5.00012,2.38556 -5.00012,5.32142l0,18.04134c0.00029,1.43279 1.12032,2.59576 2.50021,2.59576z"/>
      <path stroke="null" d="m84.99967,53.92453c0,-2.86315 -2.24239,-5.19183 -5.00012,-5.19183c-2.75743,0 -5.00012,2.32837 -5.00012,5.19183s2.24239,5.19183 5.00012,5.19183c2.75773,0 5.00012,-2.32867 5.00012,-5.19183z"/>
      <path stroke="null" d="m62.49957,12.39084l5.00012,0c1.37989,0 2.49991,-1.16297 2.49991,-2.59576c0,-1.43279 -1.12002,-2.59576 -2.49991,-2.59576l-5.00012,0c-1.37989,0 -2.49991,1.16297 -2.49991,2.59576c0,1.43279 1.12002,2.59576 2.49991,2.59576z"/>
      <path stroke="null" d="m125.00005,48.7327c-2.75743,0 -5.00012,2.32837 -5.00012,5.19183s2.24239,5.19183 5.00012,5.19183c2.75743,0 5.00012,-2.32837 5.00012,-5.19183s-2.24269,-5.19183 -5.00012,-5.19183z"/>
      <path stroke="null" d="m132.50008,79.88305l30.00014,0c1.37989,0 2.49991,-1.16297 2.49991,-2.59576s-1.12002,-2.59576 -2.49991,-2.59576l-30.00014,0c-1.37989,0 -2.49991,1.16297 -2.49991,2.59576s1.11973,2.59576 2.49991,2.59576z"/>
      <path stroke="null" d="m59.99965,53.92453c0,2.86315 2.24239,5.19183 5.00012,5.19183s5.00012,-2.32837 5.00012,-5.19183s-2.24239,-5.19183 -5.00012,-5.19183s-5.00012,2.32867 -5.00012,5.19183z"/>
      <path stroke="null" d="m114.99981,53.92453c0,-2.86315 -2.24239,-5.19183 -5.00012,-5.19183c-2.75743,0 -5.00012,2.32837 -5.00012,5.19183s2.24239,5.19183 5.00012,5.19183c2.75773,0 5.00012,-2.32867 5.00012,-5.19183z"/>
      <path stroke="null" d="m164.53519,54.04651c-1.63507,-6.35205 -6.66009,-15.69716 -17.03504,-15.69716l-97.25318,0l-4.35764,-11.30751c-0.93487,-2.55165 -3.30265,-4.26766 -5.88987,-4.26766l-4.99983,0c-2.75773,0 -5.00012,2.32837 -5.00012,5.19183l0,18.17093c0,24.74627 18.66747,44.12976 42.50029,44.12976c1.37989,0 2.49991,-1.16297 2.49991,-2.59576s-1.12002,-2.59576 -2.49991,-2.59576c-21.02764,0 -37.50017,-17.1041 -37.50017,-38.93793l0,-18.17093l5.00012,0c0.35508,0 0.97002,0.24671 1.23253,0.96554l5.00012,12.97941c0.37998,0.98379 1.29991,1.63022 2.32237,1.63022l86.99278,0l2.02735,8.4185c0.0249,0.1013 0.05508,0.2026 0.08994,0.30116c1.56739,4.22872 4.87737,6.85551 8.63764,6.85551l6.19749,0c1.37989,0 2.49991,-1.16297 2.49991,-2.59576s-1.12002,-2.59576 -2.49991,-2.59576l-6.19749,0c-2.30509,0 -3.47755,-2.26874 -3.9176,-3.39034l-1.68253,-6.99331l6.79749,0c10.20268,0 12.44508,12.86503 12.53502,13.40773c0.2001,1.24875 1.24249,2.16744 2.46505,2.16744c6.89241,0 12.50015,5.82244 12.50015,12.97941s-5.60745,12.97941 -12.50015,12.97941l-40.78495,0l3.04513,-6.67664c0.59004,-1.29529 0.05742,-2.84247 -1.19004,-3.45757c-1.24512,-0.60993 -2.73751,-0.06236 -3.3299,1.23567l-22.5127,49.34987c-0.27246,0.61784 -1.03741,1.08235 -1.4001,1.08235l-11.32769,0l0,-46.72552l27.50022,0c1.37989,0 2.49991,-1.16297 2.49991,-2.59576s-1.12002,-2.59576 -2.49991,-2.59576l-30.00014,0c-1.37989,0 -2.49991,1.16297 -2.49991,2.59576l0,49.32128c0,2.86315 2.24239,5.19183 5.00012,5.19183l11.32769,0c2.39005,0 4.88996,-1.72878 5.93264,-4.08057l17.08514,-37.45312l43.15508,0c9.65014,0 17.49998,-8.15111 17.49998,-18.17093c-0.00029,-9.30434 -6.77025,-17.00097 -15.4653,-18.04986z"/>
      <path stroke="null" d="m99.99974,53.92453c0,-2.86315 -2.24239,-5.19183 -5.00012,-5.19183c-2.75743,0 -5.00012,2.32837 -5.00012,5.19183s2.24239,5.19183 5.00012,5.19183c2.75773,0 5.00012,-2.32867 5.00012,-5.19183z"/>
     </g>
    </g>
   </g>
   <g stroke="null"/>
   <g stroke="null"/>
   <g stroke="null"/>
   <g stroke="null"/>
   <g stroke="null"/>
   <g stroke="null"/>
   <g stroke="null"/>
   <g stroke="null"/>
   <g stroke="null"/>
   <g stroke="null"/>
   <g stroke="null"/>
   <g stroke="null"/>
   <g stroke="null"/>
   <g stroke="null"/>
   <g stroke="null"/>
  </g>
 </g>

</svg>